# xmcd
#
# Track frame offsets: 
#        150
#        14943
#        29043
#        43866
#        60876
#
# Disc length: 1034 seconds
#
# Revision: 0
# Processed by: cddbd v1.5.2PL0 Copyright (c) Steve Scherf et al.
# Submitted via: ExactAudioCopy v1.0b1
#
DISCID=42040805
DTITLE=Megan James - Silence
DYEAR=1900
DGENRE=Country
TTITLE0=Louise
TTITLE1=Silence
TTITLE2=Backslider
TTITLE3=When I Miss You Most
TTITLE4=The Chase
EXTD=
EXTT0=
EXTT1=
EXTT2=
EXTT3=
EXTT4=
PLAYORDER=
